<mxfile host="app.diagrams.net" modified="2023-04-13T18:20:53.906Z" agent="Mozilla/5.0 (Macintosh; Intel Mac OS X 10_15_7) AppleWebKit/537.36 (KHTML, like Gecko) Chrome/111.0.0.0 Safari/537.36" etag="aIXO77e007fuU-8WLupq" version="21.1.7" type="device" pages="2">
  <diagram name="Hotel-Management-System" id="80Juw8k9cRfiglKgsOTn">
    <mxGraphModel dx="1863" dy="599" grid="1" gridSize="1" guides="1" tooltips="1" connect="1" arrows="1" fold="1" page="1" pageScale="1" pageWidth="827" pageHeight="1169" math="0" shadow="0">
      <root>
        <mxCell id="0" />
        <mxCell id="1" parent="0" />
        <mxCell id="EMu84CpNy0xPtldwITw9-1" value="User" style="sketch=0;outlineConnect=0;fontColor=#232F3E;gradientColor=none;strokeColor=#232F3E;fillColor=#ffffff;dashed=0;verticalLabelPosition=bottom;verticalAlign=top;align=center;html=1;fontSize=12;fontStyle=0;aspect=fixed;shape=mxgraph.aws4.resourceIcon;resIcon=mxgraph.aws4.user;" parent="1" vertex="1">
          <mxGeometry x="-120" y="287" width="60" height="60" as="geometry" />
        </mxCell>
        <mxCell id="EMu84CpNy0xPtldwITw9-4" value="Hotel UI&lt;br&gt;For Customer&amp;nbsp;" style="whiteSpace=wrap;html=1;aspect=fixed;" parent="1" vertex="1">
          <mxGeometry x="-29" y="280" width="77" height="77" as="geometry" />
        </mxCell>
        <mxCell id="EMu84CpNy0xPtldwITw9-15" value="Offers" style="rounded=1;whiteSpace=wrap;html=1;" parent="1" vertex="1">
          <mxGeometry x="464" y="360" width="118" height="60" as="geometry" />
        </mxCell>
        <mxCell id="EMu84CpNy0xPtldwITw9-50" value="" style="edgeStyle=orthogonalEdgeStyle;rounded=0;orthogonalLoop=1;jettySize=auto;html=1;" parent="1" source="EMu84CpNy0xPtldwITw9-17" target="EMu84CpNy0xPtldwITw9-34" edge="1">
          <mxGeometry relative="1" as="geometry" />
        </mxCell>
        <mxCell id="EMu84CpNy0xPtldwITw9-17" value="Room Availability/Booking&lt;br&gt;Service" style="rounded=1;whiteSpace=wrap;html=1;" parent="1" vertex="1">
          <mxGeometry x="463" y="455" width="120" height="60" as="geometry" />
        </mxCell>
        <mxCell id="EMu84CpNy0xPtldwITw9-22" value="Registration/Login&lt;br&gt;Service" style="rounded=1;whiteSpace=wrap;html=1;" parent="1" vertex="1">
          <mxGeometry x="467" y="565" width="120" height="60" as="geometry" />
        </mxCell>
        <mxCell id="EMu84CpNy0xPtldwITw9-24" value="My SQL" style="strokeWidth=2;html=1;shape=mxgraph.flowchart.database;whiteSpace=wrap;" parent="1" vertex="1">
          <mxGeometry x="709" y="525" width="65" height="38" as="geometry" />
        </mxCell>
        <mxCell id="EMu84CpNy0xPtldwITw9-25" value="Wedding" style="rounded=1;whiteSpace=wrap;html=1;" parent="1" vertex="1">
          <mxGeometry x="470" y="665" width="120" height="60" as="geometry" />
        </mxCell>
        <mxCell id="EMu84CpNy0xPtldwITw9-26" value="" style="endArrow=classic;html=1;rounded=0;entryX=0;entryY=0.75;entryDx=0;entryDy=0;exitX=0.175;exitY=0.75;exitDx=0;exitDy=0;exitPerimeter=0;" parent="1" target="EMu84CpNy0xPtldwITw9-31" edge="1">
          <mxGeometry width="50" height="50" relative="1" as="geometry">
            <mxPoint x="191.5" y="316.42499999999995" as="sourcePoint" />
            <mxPoint x="294" y="388.9" as="targetPoint" />
            <Array as="points" />
          </mxGeometry>
        </mxCell>
        <mxCell id="EMu84CpNy0xPtldwITw9-30" value="" style="endArrow=classic;html=1;rounded=0;exitX=1;exitY=0.75;exitDx=0;exitDy=0;entryX=0;entryY=0.15;entryDx=0;entryDy=0;entryPerimeter=0;" parent="1" source="EMu84CpNy0xPtldwITw9-17" edge="1" target="EMu84CpNy0xPtldwITw9-24">
          <mxGeometry width="50" height="50" relative="1" as="geometry">
            <mxPoint x="320" y="580" as="sourcePoint" />
            <mxPoint x="529" y="577" as="targetPoint" />
            <Array as="points">
              <mxPoint x="590" y="503" />
            </Array>
          </mxGeometry>
        </mxCell>
        <mxCell id="EMu84CpNy0xPtldwITw9-31" value="Manage&lt;br&gt;Booking&amp;nbsp;" style="rounded=1;whiteSpace=wrap;html=1;" parent="1" vertex="1">
          <mxGeometry x="464" y="272" width="120" height="60" as="geometry" />
        </mxCell>
        <mxCell id="EMu84CpNy0xPtldwITw9-34" value="Payment Service" style="rounded=1;whiteSpace=wrap;html=1;" parent="1" vertex="1">
          <mxGeometry x="681" y="455" width="120" height="60" as="geometry" />
        </mxCell>
        <mxCell id="EMu84CpNy0xPtldwITw9-37" value="" style="endArrow=classic;html=1;rounded=0;entryX=0;entryY=0.5;entryDx=0;entryDy=0;exitX=0.648;exitY=0.5;exitDx=0;exitDy=0;exitPerimeter=0;" parent="1" edge="1" target="EMu84CpNy0xPtldwITw9-17" source="EMu84CpNy0xPtldwITw9-41">
          <mxGeometry width="50" height="50" relative="1" as="geometry">
            <mxPoint x="190" y="485" as="sourcePoint" />
            <mxPoint x="323" y="490" as="targetPoint" />
            <Array as="points" />
          </mxGeometry>
        </mxCell>
        <mxCell id="EMu84CpNy0xPtldwITw9-38" value="MongoDB" style="strokeWidth=2;html=1;shape=mxgraph.flowchart.database;whiteSpace=wrap;" parent="1" vertex="1">
          <mxGeometry x="710" y="363" width="60" height="60" as="geometry" />
        </mxCell>
        <mxCell id="EMu84CpNy0xPtldwITw9-41" value="" style="line;strokeWidth=2;direction=south;html=1;" parent="1" vertex="1">
          <mxGeometry x="188" y="110" width="10" height="583" as="geometry" />
        </mxCell>
        <mxCell id="EMu84CpNy0xPtldwITw9-42" value="MongoDB" style="strokeWidth=2;html=1;shape=mxgraph.flowchart.database;whiteSpace=wrap;" parent="1" vertex="1">
          <mxGeometry x="703" y="166" width="60" height="60" as="geometry" />
        </mxCell>
        <mxCell id="EMu84CpNy0xPtldwITw9-45" value="Mysql" style="strokeWidth=2;html=1;shape=mxgraph.flowchart.database;whiteSpace=wrap;" parent="1" vertex="1">
          <mxGeometry x="707" y="262" width="60" height="60" as="geometry" />
        </mxCell>
        <mxCell id="EMu84CpNy0xPtldwITw9-46" value="Hotel/Services" style="rounded=1;whiteSpace=wrap;html=1;" parent="1" vertex="1">
          <mxGeometry x="466" y="184" width="119" height="60" as="geometry" />
        </mxCell>
        <mxCell id="EMu84CpNy0xPtldwITw9-52" value="Feedback/Inquery" style="rounded=1;whiteSpace=wrap;html=1;" parent="1" vertex="1">
          <mxGeometry x="465" y="96" width="125" height="60" as="geometry" />
        </mxCell>
        <mxCell id="EMu84CpNy0xPtldwITw9-54" value="" style="endArrow=classic;html=1;rounded=0;entryX=0;entryY=0.25;entryDx=0;entryDy=0;" parent="1" target="EMu84CpNy0xPtldwITw9-52" edge="1">
          <mxGeometry width="50" height="50" relative="1" as="geometry">
            <mxPoint x="191" y="111" as="sourcePoint" />
            <mxPoint x="318" y="111" as="targetPoint" />
          </mxGeometry>
        </mxCell>
        <mxCell id="5cJmgKicxko7aG0K_Mgu-1" value="" style="endArrow=classic;html=1;rounded=0;entryX=0;entryY=0.75;entryDx=0;entryDy=0;entryPerimeter=0;exitX=1;exitY=0.5;exitDx=0;exitDy=0;" edge="1" parent="1" source="EMu84CpNy0xPtldwITw9-46" target="EMu84CpNy0xPtldwITw9-42">
          <mxGeometry width="50" height="50" relative="1" as="geometry">
            <mxPoint x="456" y="218" as="sourcePoint" />
            <mxPoint x="506" y="168" as="targetPoint" />
            <Array as="points" />
          </mxGeometry>
        </mxCell>
        <mxCell id="5cJmgKicxko7aG0K_Mgu-2" value="&amp;nbsp;CDN" style="ellipse;shape=cloud;whiteSpace=wrap;html=1;" vertex="1" parent="1">
          <mxGeometry x="14" y="77" width="120" height="80" as="geometry" />
        </mxCell>
        <mxCell id="5cJmgKicxko7aG0K_Mgu-6" value="" style="endArrow=classic;html=1;rounded=0;entryX=0;entryY=0.5;entryDx=0;entryDy=0;exitX=1;exitY=0.5;exitDx=0;exitDy=0;" edge="1" parent="1" source="EMu84CpNy0xPtldwITw9-4" target="5cJmgKicxko7aG0K_Mgu-5">
          <mxGeometry width="50" height="50" relative="1" as="geometry">
            <mxPoint x="89" y="312" as="sourcePoint" />
            <mxPoint x="464" y="302" as="targetPoint" />
            <Array as="points" />
          </mxGeometry>
        </mxCell>
        <mxCell id="5cJmgKicxko7aG0K_Mgu-5" value="API-Gatways" style="sketch=0;outlineConnect=0;fontColor=#232F3E;gradientColor=none;fillColor=#B0084D;strokeColor=none;dashed=0;verticalLabelPosition=bottom;verticalAlign=top;align=center;html=1;fontSize=12;fontStyle=0;aspect=fixed;pointerEvents=1;shape=mxgraph.aws4.endpoint;" vertex="1" parent="1">
          <mxGeometry x="82" y="279" width="78" height="78" as="geometry" />
        </mxCell>
        <mxCell id="5cJmgKicxko7aG0K_Mgu-7" value="" style="endArrow=classic;html=1;rounded=0;entryX=0;entryY=0.5;entryDx=0;entryDy=0;" edge="1" parent="1" source="EMu84CpNy0xPtldwITw9-1" target="EMu84CpNy0xPtldwITw9-4">
          <mxGeometry width="50" height="50" relative="1" as="geometry">
            <mxPoint x="-70" y="321" as="sourcePoint" />
            <mxPoint x="-20" y="271" as="targetPoint" />
          </mxGeometry>
        </mxCell>
        <mxCell id="5cJmgKicxko7aG0K_Mgu-8" value="" style="endArrow=classic;html=1;rounded=0;entryX=0.367;entryY=0.888;entryDx=0;entryDy=0;entryPerimeter=0;" edge="1" parent="1" target="5cJmgKicxko7aG0K_Mgu-2">
          <mxGeometry width="50" height="50" relative="1" as="geometry">
            <mxPoint x="3" y="280" as="sourcePoint" />
            <mxPoint x="58" y="184" as="targetPoint" />
          </mxGeometry>
        </mxCell>
        <mxCell id="5cJmgKicxko7aG0K_Mgu-9" value="" style="endArrow=classic;html=1;rounded=0;" edge="1" parent="1" target="EMu84CpNy0xPtldwITw9-38">
          <mxGeometry width="50" height="50" relative="1" as="geometry">
            <mxPoint x="582" y="394" as="sourcePoint" />
            <mxPoint x="632" y="344" as="targetPoint" />
            <Array as="points" />
          </mxGeometry>
        </mxCell>
        <mxCell id="5cJmgKicxko7aG0K_Mgu-10" value="" style="endArrow=classic;html=1;rounded=0;" edge="1" parent="1">
          <mxGeometry width="50" height="50" relative="1" as="geometry">
            <mxPoint x="192" y="218" as="sourcePoint" />
            <mxPoint x="467" y="215" as="targetPoint" />
            <Array as="points" />
          </mxGeometry>
        </mxCell>
        <mxCell id="5cJmgKicxko7aG0K_Mgu-11" value="" style="endArrow=classic;html=1;rounded=0;entryX=0.359;entryY=0.5;entryDx=0;entryDy=0;entryPerimeter=0;" edge="1" parent="1" source="5cJmgKicxko7aG0K_Mgu-5" target="EMu84CpNy0xPtldwITw9-41">
          <mxGeometry width="50" height="50" relative="1" as="geometry">
            <mxPoint x="158" y="322" as="sourcePoint" />
            <mxPoint x="194" y="244.83300000000008" as="targetPoint" />
          </mxGeometry>
        </mxCell>
        <mxCell id="X-IXCEyXQTT2BmJpGRBM-1" value="" style="endArrow=classic;html=1;rounded=0;entryX=-0.033;entryY=0.65;entryDx=0;entryDy=0;entryPerimeter=0;exitX=1;exitY=0.5;exitDx=0;exitDy=0;" edge="1" parent="1" source="EMu84CpNy0xPtldwITw9-31" target="EMu84CpNy0xPtldwITw9-45">
          <mxGeometry width="50" height="50" relative="1" as="geometry">
            <mxPoint x="582" y="304" as="sourcePoint" />
            <mxPoint x="632" y="254" as="targetPoint" />
          </mxGeometry>
        </mxCell>
        <mxCell id="X-IXCEyXQTT2BmJpGRBM-2" value="Mysql" style="strokeWidth=2;html=1;shape=mxgraph.flowchart.database;whiteSpace=wrap;" vertex="1" parent="1">
          <mxGeometry x="719" y="650" width="60" height="60" as="geometry" />
        </mxCell>
        <mxCell id="X-IXCEyXQTT2BmJpGRBM-4" value="Mysql" style="strokeWidth=2;html=1;shape=mxgraph.flowchart.database;whiteSpace=wrap;" vertex="1" parent="1">
          <mxGeometry x="722" y="570" width="60" height="60" as="geometry" />
        </mxCell>
        <mxCell id="X-IXCEyXQTT2BmJpGRBM-7" value="" style="endArrow=classic;html=1;rounded=0;entryX=0;entryY=0.75;entryDx=0;entryDy=0;exitX=0.175;exitY=0.75;exitDx=0;exitDy=0;exitPerimeter=0;" edge="1" parent="1">
          <mxGeometry width="50" height="50" relative="1" as="geometry">
            <mxPoint x="193" y="388.00499999999994" as="sourcePoint" />
            <mxPoint x="465.5" y="388.58" as="targetPoint" />
            <Array as="points" />
          </mxGeometry>
        </mxCell>
        <mxCell id="X-IXCEyXQTT2BmJpGRBM-8" value="" style="endArrow=classic;html=1;rounded=0;exitX=0.834;exitY=0.5;exitDx=0;exitDy=0;exitPerimeter=0;" edge="1" parent="1" source="EMu84CpNy0xPtldwITw9-41">
          <mxGeometry width="50" height="50" relative="1" as="geometry">
            <mxPoint x="197" y="597" as="sourcePoint" />
            <mxPoint x="468" y="597" as="targetPoint" />
          </mxGeometry>
        </mxCell>
        <mxCell id="X-IXCEyXQTT2BmJpGRBM-9" value="" style="endArrow=classic;html=1;rounded=0;" edge="1" parent="1">
          <mxGeometry width="50" height="50" relative="1" as="geometry">
            <mxPoint x="192" y="690" as="sourcePoint" />
            <mxPoint x="470" y="690" as="targetPoint" />
            <Array as="points" />
          </mxGeometry>
        </mxCell>
        <mxCell id="X-IXCEyXQTT2BmJpGRBM-10" value="" style="endArrow=classic;html=1;rounded=0;entryX=-0.017;entryY=0.717;entryDx=0;entryDy=0;entryPerimeter=0;" edge="1" parent="1" target="X-IXCEyXQTT2BmJpGRBM-2">
          <mxGeometry width="50" height="50" relative="1" as="geometry">
            <mxPoint x="591" y="691" as="sourcePoint" />
            <mxPoint x="641" y="641" as="targetPoint" />
          </mxGeometry>
        </mxCell>
        <mxCell id="X-IXCEyXQTT2BmJpGRBM-11" value="" style="endArrow=classic;html=1;rounded=0;entryX=0;entryY=0.5;entryDx=0;entryDy=0;entryPerimeter=0;" edge="1" parent="1" target="X-IXCEyXQTT2BmJpGRBM-4">
          <mxGeometry width="50" height="50" relative="1" as="geometry">
            <mxPoint x="587" y="598" as="sourcePoint" />
            <mxPoint x="637" y="548" as="targetPoint" />
          </mxGeometry>
        </mxCell>
        <mxCell id="X-IXCEyXQTT2BmJpGRBM-12" value="MongoDB" style="strokeWidth=2;html=1;shape=mxgraph.flowchart.database;whiteSpace=wrap;" vertex="1" parent="1">
          <mxGeometry x="701" y="91" width="60" height="60" as="geometry" />
        </mxCell>
        <mxCell id="X-IXCEyXQTT2BmJpGRBM-13" value="" style="endArrow=classic;html=1;rounded=0;exitX=1;exitY=0.5;exitDx=0;exitDy=0;" edge="1" parent="1" source="EMu84CpNy0xPtldwITw9-52">
          <mxGeometry width="50" height="50" relative="1" as="geometry">
            <mxPoint x="590" y="133" as="sourcePoint" />
            <mxPoint x="699" y="124" as="targetPoint" />
            <Array as="points" />
          </mxGeometry>
        </mxCell>
      </root>
    </mxGraphModel>
  </diagram>
  <diagram id="ycPYo-3dI9VU-j2H0n3i" name="Page-2">
    <mxGraphModel dx="1036" dy="599" grid="1" gridSize="10" guides="1" tooltips="1" connect="1" arrows="1" fold="1" page="1" pageScale="1" pageWidth="827" pageHeight="1169" math="0" shadow="0">
      <root>
        <mxCell id="0" />
        <mxCell id="1" parent="0" />
      </root>
    </mxGraphModel>
  </diagram>
</mxfile>
